<?xml version="1.0" standalone="no"?>
<!DOCTYPE svg PUBLIC "-//W3C//DTD SVG 20010904//EN"
 "http://www.w3.org/TR/2001/REC-SVG-20010904/DTD/svg10.dtd">
<svg version="1.0" xmlns="http://www.w3.org/2000/svg"
 width="700.000000pt" height="700.000000pt" viewBox="0 0 700.000000 700.000000"
 preserveAspectRatio="xMidYMid meet">
<metadata>
Created by potrace 1.11, written by Peter Selinger 2001-2013
</metadata>
<g transform="translate(0.000000,700.000000) scale(0.100000,-0.100000)"
fill="#000000" stroke="none">
<path d="M2537 6984 c-455 -57 -815 -261 -1177 -664 -127 -142 -341 -460 -472
-705 -43 -79 -238 -473 -238 -480 0 -2 -14 -35 -31 -72 -39 -86 -149 -348
-184 -438 -15 -38 -36 -92 -47 -120 -28 -72 -89 -238 -92 -250 -2 -5 -6 -17
-9 -25 -38 -88 -174 -554 -203 -694 -9 -46 -53 -283 -58 -316 -21 -140 -28
-515 -12 -640 60 -458 274 -845 646 -1170 35 -30 68 -60 74 -66 6 -6 58 -45
116 -88 58 -42 113 -84 123 -92 9 -8 19 -14 21 -14 3 0 39 -23 80 -50 42 -28
91 -59 109 -69 191 -110 256 -145 407 -221 96 -49 207 -103 245 -120 39 -17
88 -40 110 -50 110 -51 176 -80 181 -80 3 0 24 -8 47 -19 100 -44 377 -154
527 -208 244 -90 675 -221 687 -209 4 3 7 1447 4 1527 -1 9 -23 25 -56 38 -57
24 -101 66 -111 107 -3 13 -13 24 -21 24 -9 0 -63 16 -121 35 -507 170 -920
653 -1072 1255 -12 47 -24 94 -26 105 -31 179 -39 256 -39 425 0 146 11 283
29 380 3 14 8 45 11 70 19 147 86 385 160 570 38 94 163 347 191 384 14 19 37
20 1162 20 631 1 1156 0 1167 -2 24 -4 34 -21 125 -202 135 -268 223 -544 261
-815 5 -40 12 -82 14 -93 19 -101 26 -373 12 -512 -39 -391 -176 -748 -406
-1055 -132 -177 -374 -374 -575 -470 -83 -39 -243 -97 -273 -98 -7 0 -18 -15
-24 -34 -12 -38 -53 -73 -119 -101 l-45 -19 0 -799 0 -799 65 -12 c36 -6 92
-15 125 -18 33 -4 69 -9 80 -12 40 -10 462 -12 535 -2 655 82 1124 444 1585
1219 88 148 273 514 354 700 35 80 69 159 76 175 48 110 195 480 195 491 0 3
7 20 15 37 24 52 140 411 184 567 37 132 92 372 105 460 34 216 41 304 41 510
0 162 -5 229 -24 342 -90 530 -414 970 -1001 1358 -52 34 -107 71 -122 81 -15
11 -29 19 -32 19 -2 0 -37 19 -78 43 -138 82 -415 225 -553 287 -27 12 -75 33
-105 47 -30 13 -73 33 -95 43 -59 27 -255 110 -261 110 -2 0 -23 8 -47 19 -65
28 -91 38 -221 87 -66 25 -137 52 -156 59 -202 83 -742 237 -935 268 -16 3
-59 10 -95 16 -36 5 -85 13 -110 16 -25 3 -61 8 -80 11 -81 12 -439 11 -543
-2z"/>
</g>
</svg>
